<svg width="32" height="32" viewBox="0 0 32 32" fill="none" xmlns="http://www.w3.org/2000/svg">
<path d="M10.6665 2.66663V6.66663" stroke="black" stroke-width="1.5" stroke-miterlimit="10" stroke-linecap="round" stroke-linejoin="round"/>
<path d="M21.3335 2.66663V6.66663" stroke="black" stroke-width="1.5" stroke-miterlimit="10" stroke-linecap="round" stroke-linejoin="round"/>
<path d="M4.6665 12.12H27.3332" stroke="black" stroke-width="1.5" stroke-miterlimit="10" stroke-linecap="round" stroke-linejoin="round"/>
<path d="M29.3332 25.3333C29.3332 26.3333 29.0532 27.28 28.5598 28.08C27.6398 29.6267 25.9465 30.6667 23.9998 30.6667C22.6532 30.6667 21.4265 30.1733 20.4932 29.3333C20.0798 28.9867 19.7198 28.56 19.4398 28.08C18.9465 27.28 18.6665 26.3333 18.6665 25.3333C18.6665 22.3867 21.0532 20 23.9998 20C25.5998 20 27.0265 20.7066 27.9998 21.8133C28.8265 22.76 29.3332 23.9867 29.3332 25.3333Z" stroke="black" stroke-width="1.5" stroke-miterlimit="10" stroke-linecap="round" stroke-linejoin="round"/>
<path d="M21.9199 25.3333L23.2399 26.6533L26.0799 24.0266" stroke="black" stroke-width="1.5" stroke-linecap="round" stroke-linejoin="round"/>
<path d="M28 11.3333V21.8133C27.0267 20.7066 25.6 20 24 20C21.0533 20 18.6667 22.3866 18.6667 25.3333C18.6667 26.3333 18.9467 27.28 19.44 28.08C19.72 28.56 20.08 28.9866 20.4933 29.3333H10.6667C6 29.3333 4 26.6666 4 22.6666V11.3333C4 7.33329 6 4.66663 10.6667 4.66663H21.3333C26 4.66663 28 7.33329 28 11.3333Z" stroke="black" stroke-width="1.5" stroke-miterlimit="10" stroke-linecap="round" stroke-linejoin="round"/>
<path d="M15.9938 18.2666H16.0058" stroke="black" stroke-width="2" stroke-linecap="round" stroke-linejoin="round"/>
<path d="M11.0592 18.2666H11.0712" stroke="black" stroke-width="2" stroke-linecap="round" stroke-linejoin="round"/>
<path d="M11.0592 22.2666H11.0712" stroke="black" stroke-width="2" stroke-linecap="round" stroke-linejoin="round"/>
</svg>
