<svg width="32" height="32" viewBox="0 0 32 32" fill="none" xmlns="http://www.w3.org/2000/svg">
<path d="M2.75991 6.13334C3.82658 1.52001 10.7732 1.52001 11.8266 6.13334C12.4532 8.84001 10.7332 11.1333 9.23991 12.56C8.14658 13.6 6.42658 13.5867 5.33324 12.56C3.85324 11.1333 2.13324 8.84001 2.75991 6.13334Z" stroke="black" stroke-width="1.5"/>
<path d="M20.0933 22.1333C21.16 17.52 28.1467 17.52 29.2133 22.1333C29.84 24.84 28.12 27.1333 26.6133 28.56C25.52 29.6 23.7867 29.5867 22.6933 28.56C21.1867 27.1333 19.4667 24.84 20.0933 22.1333Z" stroke="black" stroke-width="1.5"/>
<path d="M15.9998 6.66663H19.5731C22.0398 6.66663 23.1864 9.71996 21.3331 11.3466L10.6798 20.6666C8.82643 22.28 9.9731 25.3333 12.4264 25.3333H15.9998" stroke="black" stroke-width="1.5" stroke-linecap="round" stroke-linejoin="round"/>
<path d="M7.31496 7.33329H7.33036" stroke="black" stroke-width="2" stroke-linecap="round" stroke-linejoin="round"/>
<path d="M24.6485 23.3333H24.6639" stroke="black" stroke-width="2" stroke-linecap="round" stroke-linejoin="round"/>
</svg>
