<svg width="20" height="20" viewBox="0 0 20 20" fill="none" xmlns="http://www.w3.org/2000/svg">
<g clip-path="url(#clip0_311_199)">
<path d="M19.1667 9.16638H0.833333C0.373096 9.16638 0 9.53948 0 9.99972C0 10.46 0.373096 10.8331 0.833333 10.8331H19.1667C19.6269 10.8331 20 10.46 20 9.99972C20 9.53948 19.6269 9.16638 19.1667 9.16638Z" fill="white"/>
<path d="M19.1667 3.33362H0.833333C0.373096 3.33362 0 3.70671 0 4.16695C0 4.62719 0.373096 5.00028 0.833333 5.00028H19.1667C19.6269 5.00028 20 4.62719 20 4.16695C20 3.70671 19.6269 3.33362 19.1667 3.33362Z" fill="white"/>
<path d="M19.1667 15H0.833333C0.373096 15 0 15.3731 0 15.8333C0 16.2936 0.373096 16.6667 0.833333 16.6667H19.1667C19.6269 16.6667 20 16.2936 20 15.8333C20 15.3731 19.6269 15 19.1667 15Z" fill="white"/>
</g>
<defs>
<clipPath id="clip0_311_199">
<rect width="20" height="20" fill="white"/>
</clipPath>
</defs>
</svg>
